<svg xmlns="http://www.w3.org/2000/svg" width="35" height="35" viewBox="0 0 35 35" fill="none">
  <!-- Outer glow effect -->
  <circle cx="17.5" cy="17.5" r="16" fill="url(#glow)" opacity="0.15"/>

  <!-- Main ascending bars representing growth and abundance -->
  <g transform="translate(7, 8)">
    <!-- Bar 1 - Shortest -->
    <rect x="0" y="14" width="3.5" height="5" rx="1.5" fill="url(#gradient1)">
      <animate attributeName="height" values="5;6;5" dur="2s" repeatCount="indefinite"/>
      <animate attributeName="y" values="14;13;14" dur="2s" repeatCount="indefinite"/>
    </rect>

    <!-- Bar 2 -->
    <rect x="5" y="10" width="3.5" height="9" rx="1.5" fill="url(#gradient2)">
      <animate attributeName="height" values="9;10;9" dur="2s" begin="0.2s" repeatCount="indefinite"/>
      <animate attributeName="y" values="10;9;10" dur="2s" begin="0.2s" repeatCount="indefinite"/>
    </rect>

    <!-- Bar 3 -->
    <rect x="10" y="6" width="3.5" height="13" rx="1.5" fill="url(#gradient3)">
      <animate attributeName="height" values="13;14;13" dur="2s" begin="0.4s" repeatCount="indefinite"/>
      <animate attributeName="y" values="6;5;6" dur="2s" begin="0.4s" repeatCount="indefinite"/>
    </rect>

    <!-- Bar 4 - Tallest -->
    <rect x="15" y="2" width="3.5" height="17" rx="1.5" fill="url(#gradient4)">
      <animate attributeName="height" values="17;18;17" dur="2s" begin="0.6s" repeatCount="indefinite"/>
      <animate attributeName="y" values="2;1;2" dur="2s" begin="0.6s" repeatCount="indefinite"/>
    </rect>
  </g>

  <!-- Sparkle effects for abundance feeling -->
  <g opacity="0.8">
    <path d="M27 8L27.5 9.5L29 10L27.5 10.5L27 12L26.5 10.5L25 10L26.5 9.5L27 8Z" fill="url(#sparkle)">
      <animate attributeName="opacity" values="0.8;1;0.8" dur="3s" repeatCount="indefinite"/>
    </path>
    <path d="M8 5L8.3 6L9.5 6.3L8.3 6.6L8 7.5L7.7 6.6L6.5 6.3L7.7 6L8 5Z" fill="url(#sparkle)" opacity="0.6">
      <animate attributeName="opacity" values="0.6;0.9;0.6" dur="2.5s" begin="0.5s" repeatCount="indefinite"/>
    </path>
    <path d="M28 20L28.3 20.7L29 21L28.3 21.3L28 22L27.7 21.3L27 21L27.7 20.7L28 20Z" fill="url(#sparkle)" opacity="0.7">
      <animate attributeName="opacity" values="0.7;1;0.7" dur="2s" begin="1s" repeatCount="indefinite"/>
    </path>
  </g>

  <!-- Upward arrow accent for growth -->
  <path d="M24.5 12L26.5 9.5L28.5 12" stroke="url(#accent)" stroke-width="1.5" stroke-linecap="round" stroke-linejoin="round" opacity="0.6"/>

  <defs>
    <!-- Glow gradient -->
    <radialGradient id="glow">
      <stop offset="0%" stop-color="#10B981"/>
      <stop offset="100%" stop-color="#14B8A6"/>
    </radialGradient>

    <!-- Bar gradients - creating depth and premium feel -->
    <linearGradient id="gradient1" x1="1.75" y1="14" x2="1.75" y2="19" gradientUnits="userSpaceOnUse">
      <stop offset="0%" stop-color="#34D399"/>
      <stop offset="100%" stop-color="#10B981"/>
    </linearGradient>

    <linearGradient id="gradient2" x1="6.75" y1="10" x2="6.75" y2="19" gradientUnits="userSpaceOnUse">
      <stop offset="0%" stop-color="#2DD4BF"/>
      <stop offset="100%" stop-color="#14B8A6"/>
    </linearGradient>

    <linearGradient id="gradient3" x1="11.75" y1="6" x2="11.75" y2="19" gradientUnits="userSpaceOnUse">
      <stop offset="0%" stop-color="#5EEAD4"/>
      <stop offset="100%" stop-color="#14B8A6"/>
    </linearGradient>

    <linearGradient id="gradient4" x1="16.75" y1="2" x2="16.75" y2="19" gradientUnits="userSpaceOnUse">
      <stop offset="0%" stop-color="#99F6E4"/>
      <stop offset="100%" stop-color="#0D9488"/>
    </linearGradient>

    <!-- Sparkle gradient -->
    <linearGradient id="sparkle" x1="0%" y1="0%" x2="100%" y2="100%">
      <stop offset="0%" stop-color="#ECFDF5"/>
      <stop offset="100%" stop-color="#6EE7B7"/>
    </linearGradient>

    <!-- Accent gradient -->
    <linearGradient id="accent" x1="24.5" y1="9.5" x2="28.5" y2="9.5">
      <stop offset="0%" stop-color="#10B981"/>
      <stop offset="100%" stop-color="#14B8A6"/>
    </linearGradient>
  </defs>
</svg>
